<?xml version="1.0" encoding="UTF-8"?>
<svg width="192" height="128" version="1.1" viewBox="0 0 192 128" xmlns="http://www.w3.org/2000/svg">
 <g transform="matrix(1.2249 0 0 1.2249 40.972 -22.905)">
	<path d="m71.05 23.68c-26.06 0-47.27 21.22-47.27 47.27s21.22 47.27 47.27 47.27 47.27-21.22 47.27-47.27-21.22-47.27-47.27-47.27zm-0.07 4.2a3.1 3.11 0 0 1 3.02 3.11 3.11 3.11 0 0 1-6.22 0 3.11 3.11 0 0 1 3.2-3.11zm7.12 5.12a38.27 38.27 0 0 1 26.2 18.66l-3.67 8.28c-0.63 1.43 0.02 3.11 1.44 3.75l7.06 3.13a38.27 38.27 0 0 1 0.08 6.64h-3.93c-0.39 0-0.55 0.26-0.55 0.64v1.8c0 4.24-2.39 5.17-4.49 5.4-2 0.23-4.21-0.84-4.49-2.06-1.18-6.63-3.14-8.04-6.24-10.49 3.85-2.44 7.85-6.05 7.85-10.87 0-5.21-3.57-8.49-6-10.1-3.42-2.25-7.2-2.7-8.22-2.7h-40.6a38.27 38.27 0 0 1 21.41-12.08l4.79 5.02c1.08 1.13 2.87 1.18 4 0.09zm-44.2 23.02a3.11 3.11 0 0 1 3.02 3.11 3.11 3.11 0 0 1-6.22 0 3.11 3.11 0 0 1 3.2-3.11zm74.15 0.14a3.11 3.11 0 0 1 3.02 3.11 3.11 3.11 0 0 1-6.22 0 3.11 3.11 0 0 1 3.2-3.11zm-68.29 0.5h5.42v24.44h-10.94a38.27 38.27 0 0 1-1.24-14.61l6.7-2.98c1.43-0.64 2.08-2.31 1.44-3.74zm22.62 0.26h12.91c0.67 0 4.71 0.77 4.71 3.8 0 2.51-3.1 3.41-5.65 3.41h-11.98zm0 17.56h9.89c0.9 0 4.83 0.26 6.08 5.28 0.39 1.54 1.26 6.56 1.85 8.17 0.59 1.8 2.98 5.4 5.53 5.4h16.14a38.27 38.27 0 0 1-3.54 4.1l-6.57-1.41c-1.53-0.33-3.04 0.65-3.37 2.18l-1.56 7.28a38.27 38.27 0 0 1-31.91-0.15l-1.56-7.28c-0.33-1.53-1.83-2.51-3.36-2.18l-6.43 1.38a38.27 38.27 0 0 1-3.32-3.92h31.27c0.35 0 0.59-0.06 0.59-0.39v-11.06c0-0.32-0.24-0.39-0.59-0.39h-9.15zm-14.43 25.33a3.11 3.11 0 0 1 3.02 3.11 3.11 3.11 0 0 1-6.22 0 3.11 3.11 0 0 1 3.2-3.11zm46.05 0.14a3.11 3.11 0 0 1 3.02 3.11 3.11 3.11 0 0 1-6.22 0 3.11 3.11 0 0 1 3.2-3.11z"/>
	<path d="m115.68 70.95a44.63 44.63 0 0 1-44.63 44.63 44.63 44.63 0 0 1-44.63-44.63 44.63 44.63 0 0 1 44.63-44.63 44.63 44.63 0 0 1 44.63 44.63zm-0.84-4.31 6.96 4.31-6.96 4.31 5.98 5.59-7.66 2.87 4.78 6.65-8.09 1.32 3.4 7.46-8.19-0.29 1.88 7.98-7.98-1.88 0.29 8.19-7.46-3.4-1.32 8.09-6.65-4.78-2.87 7.66-5.59-5.98-4.31 6.96-4.31-6.96-5.59 5.98-2.87-7.66-6.65 4.78-1.32-8.09-7.46 3.4 0.29-8.19-7.98 1.88 1.88-7.98-8.19 0.29 3.4-7.46-8.09-1.32 4.78-6.65-7.66-2.87 5.98-5.59-6.96-4.31 6.96-4.31-5.98-5.59 7.66-2.87-4.78-6.65 8.09-1.32-3.4-7.46 8.19 0.29-1.88-7.98 7.98 1.88-0.29-8.19 7.46 3.4 1.32-8.09 6.65 4.78 2.87-7.66 5.59 5.98 4.31-6.96 4.31 6.96 5.59-5.98 2.87 7.66 6.65-4.78 1.32 8.09 7.46-3.4-0.29 8.19 7.98-1.88-1.88 7.98 8.19-0.29-3.4 7.46 8.09 1.32-4.78 6.65 7.66 2.87z" fill-rule="evenodd"/>
 </g>
 <g transform="translate(-198.72,-346.82)">
	<path d="m326.52 405.74a64 64 0 0 1-58.579 68.866 64 64 0 0 1-68.994-58.429 64 64 0 0 1 58.278-69.122 64 64 0 0 1 69.249 58.127" fill="#565dff"/>
	<path d="m262.99 346.83c-0.28327 8e-3 -0.56648 0.0189-0.84961 0.0312-23.302 0.32198-42.281 19.613-42.281 43.213v21.635h-7.1426v38.414c1.1718 1.5346 2.412 3.0146 3.7168 4.4355 1.4446 1.5575 2.9653 3.0412 4.5566 4.4453 1.5916 1.4052 3.2519 2.7291 4.9746 3.9668 1.722 1.2369 3.5042 2.3862 5.3398 3.4434 1.8359 1.0574 3.723 2.0216 5.6543 2.8887 1.9314 0.8666 3.9046 1.6351 5.9121 2.3027 2.0078 0.66828 4.0475 1.2347 6.1113 1.6973 2.063 0.46231 4.1477 0.82018 6.2461 1.0723 2.0524 0.24422 4.1154 0.38697 6.1816 0.42773h0.44531c2.0117 0.0322 4.0237-0.0324 6.0293-0.19336 1.4454-0.11933 2.8864-0.2887 4.3203-0.50781 2.09-0.31902 4.1629-0.74338 6.2109-1.2715 2.0476-0.5286 4.0677-1.1602 6.0527-1.8926 1.9853-0.73263 3.933-1.565 5.8359-2.4941 1.903-0.92856 3.7588-1.9526 5.5605-3.0684 1.8021-1.1156 3.5477-2.3216 5.2305-3.6133 1.6823-1.2926 3.2996-2.6693 4.8457-4.125 1.5462-1.4547 3.0194-2.9866 4.4141-4.5898 0.81668-0.97791 1.6041-1.9803 2.3613-3.0059v-38.332h-7.1445v-21.635c0-23.705-19.138-43.09-42.582-43.244zm-0.27343 18.396c15.714 0 24.57 8.9814 24.57 24.848v21.635h-49.143v-21.635c0-15.866 8.858-24.848 24.572-24.848z" fill="#646eff"/>
	<path transform="translate(198.72,346.82)" d="m210.5 72.102c-0.19717 0-0.37961 0.05588-0.57618 0.05859a63.397 64.01 0 0 1 0.84961-0.03125c-0.09344-6.09e-4 -0.17986-0.02734-0.27343-0.02734z" fill="#646eff"/>
	<g transform="matrix(1.1173,0,0,1.1173,20.737,27.336)" fill="#fff">
	 <g aria-label="LIP">
		<path d="m184.11 330.65h7.5195l-4.5703 23.477h13.164l-1.0742 5.6836h-20.723z"/>
		<path d="m209.58 330.65h7.5195l-5.6836 29.16h-7.5195z"/>
		<path d="m224.5 330.65h12.48q4.5898 0 7.168 2.1094 2.5976 2.0898 2.5976 5.8203 0 2.2852-0.85937 4.3555-0.85938 2.0508-2.4609 3.5938-1.7383 1.6602-4.1406 2.4219-2.4024 0.74219-6.0352 0.74219h-4.9609l-1.9531 10.117h-7.5195zm6.4844 5.4492-1.6016 8.1445h4.1602q2.6562 0 4.0625-1.25t1.4062-3.6328q0-1.582-1.0156-2.4219-0.99609-0.83984-2.8906-0.83984z"/>
	 </g>
	 <g aria-label="tk">
		<path d="m249.08 321.4v2.4844h2.9609v1.1172h-2.9609v4.75q0 1.0703 0.28907 1.375 0.29687 0.30468 1.1953 0.30468h1.4766v1.2031h-1.4766q-1.6641 0-2.2969-0.61719-0.63281-0.625-0.63281-2.2656v-4.75h-1.0547v-1.1172h1.0547v-2.4844z"/>
		<path d="m253.89 320.48h1.4453v7.1797l4.2891-3.7734h1.8359l-4.6406 4.0938 4.8359 4.6562h-1.875l-4.4453-4.2734v4.2734h-1.4453z"/>
	 </g>
	</g>
 </g>
</svg>
